<svg width="637" height="216" viewBox="0 0 637 216" fill="none" xmlns="http://www.w3.org/2000/svg">
<path d="M134.998 18.4089C154.358 18.4089 172.927 26.0996 186.617 39.7897C200.307 53.4799 207.998 72.0481 207.998 91.4089V91.4167L207.987 92.7028V92.7106C207.55 120.201 193.294 140.723 173.751 156.568C154.23 172.396 129.352 183.626 107.476 192.564L107.461 192.57L107.448 192.576L107.083 192.712L107.068 192.717L107.052 192.722C102.631 194.208 97.9976 190.905 97.9976 186.168V170.313C97.9976 167.175 95.5143 164.564 92.3198 164.111L92.0083 164.074C75.4753 162.484 59.9058 155.29 47.9458 143.589L47.9419 143.586L47.3823 143.032L47.3784 143.028C33.9022 129.552 26.2397 111.349 26.0034 92.3161V92.3102L25.9976 91.4157V91.4089C25.9976 51.1166 58.7052 18.4089 98.9976 18.4089H134.998ZM98.9976 31.2585C65.8017 31.2585 38.8472 58.213 38.8472 91.4089L38.8511 92.1559C39.0456 107.839 45.3601 122.838 56.4644 133.942C66.069 143.547 78.5882 149.567 91.9429 151.144H91.9419L93.2495 151.285H93.2485C102.39 152.169 110.847 159.695 110.847 170.313V177.242C130.336 168.965 150.334 159.125 166.077 146.247C183.775 131.768 195.148 114.283 195.148 91.4089L195.144 90.6618C194.949 74.9789 188.635 59.9799 177.531 48.8757C166.25 37.5952 150.951 31.2585 134.998 31.2585H98.9976Z" fill="url(#paint0_linear_27_54)" stroke="url(#paint1_linear_27_54)" stroke-width="2"/>
<rect x="76" y="63" width="83" height="13" rx="6.5" fill="url(#paint2_linear_27_54)"/>
<rect x="76" y="86" width="66" height="13" rx="6.5" fill="url(#paint3_linear_27_54)"/>
<rect x="76" y="110" width="45" height="12" rx="6" fill="url(#paint4_linear_27_54)"/>
<mask id="path-5-outside-1_27_54" maskUnits="userSpaceOnUse" x="245" y="41.2973" width="364" height="134" fill="black">
<rect fill="white" x="245" y="41.2973" width="364" height="134"/>
<path d="M310.286 72.405C306.806 72.405 304.08 69.6423 302.373 66.6098C301.292 64.6894 299.756 63.06 297.766 61.7216C294.01 59.1641 289.284 57.8853 283.586 57.8853C279.507 57.8853 275.978 58.5328 273 59.8277C270.021 61.0903 267.707 62.8385 266.056 65.0723C264.437 67.2737 263.628 69.7827 263.628 72.5992C263.628 74.9625 264.178 77.002 265.279 78.7179C266.412 80.4337 267.885 81.8743 269.698 83.0398C271.543 84.1728 273.518 85.1279 275.622 85.9049C277.726 86.6494 279.75 87.2645 281.692 87.7502L291.404 90.2753C294.577 91.0523 297.831 92.1044 301.165 93.4318C304.5 94.7591 307.591 96.5073 310.44 98.6763C313.289 100.845 315.588 103.532 317.336 106.737C319.116 109.942 320.007 113.779 320.007 118.246C320.007 123.879 318.55 128.881 315.636 133.252C312.755 137.622 308.562 141.07 303.059 143.595C297.588 146.12 290.967 147.383 283.198 147.383C275.752 147.383 269.309 146.201 263.87 143.838C258.432 141.475 254.174 138.124 251.099 133.786C249.314 131.25 247.993 128.441 247.135 125.359C246.083 121.582 249.296 118.246 253.217 118.246H254.748C258.31 118.246 261.073 121.112 262.639 124.311C263.155 125.367 263.792 126.34 264.55 127.23C266.622 129.593 269.261 131.358 272.466 132.523C275.703 133.656 279.248 134.223 283.1 134.223C287.341 134.223 291.113 133.559 294.415 132.232C297.75 130.872 300.372 128.994 302.282 126.599C304.192 124.171 305.147 121.338 305.147 118.101C305.147 115.155 304.305 112.743 302.622 110.865C300.971 108.987 298.721 107.433 295.872 106.203C293.055 104.973 289.867 103.889 286.305 102.95L274.554 99.7447C266.59 97.5756 260.277 94.3868 255.615 90.1782C250.986 85.9696 248.671 80.4013 248.671 73.4733C248.671 67.7431 250.225 62.7414 253.333 58.468C256.441 54.1947 260.649 50.8764 265.958 48.5131C271.268 46.1174 277.257 44.9196 283.926 44.9196C290.66 44.9196 296.6 46.1012 301.748 48.4645C306.928 50.8278 311.007 54.0814 313.985 58.2252C315.609 60.4676 316.81 62.8929 317.587 65.5011C318.684 69.1823 315.483 72.405 311.642 72.405H310.286Z"/>
<path d="M358.479 147.383C353.752 147.383 349.479 146.509 345.659 144.76C341.839 142.98 338.812 140.406 336.578 137.039C334.377 133.672 333.276 129.545 333.276 124.656C333.276 120.448 334.085 116.984 335.704 114.264C337.323 111.545 339.508 109.392 342.26 107.806C345.011 106.219 348.087 105.022 351.486 104.212C354.885 103.403 358.349 102.788 361.878 102.367C366.346 101.849 369.972 101.428 372.756 101.104C375.54 100.748 377.563 100.182 378.826 99.4047C380.088 98.6278 380.72 97.3652 380.72 95.617V95.2771C380.72 91.0361 379.522 87.7502 377.126 85.4192C374.763 83.0883 371.234 81.9229 366.54 81.9229C361.651 81.9229 357.799 83.0074 354.982 85.1764C353.132 86.5966 351.66 88.124 350.568 89.7587C349.638 91.1505 348.006 92.0421 346.374 91.6703L339.314 90.0624C337.316 89.6074 336.146 87.4958 337.064 85.6636C338.534 82.7273 340.395 80.2502 342.648 78.2323C345.788 75.4157 349.398 73.3762 353.477 72.1136C357.556 70.8186 361.846 70.1712 366.346 70.1712C369.324 70.1712 372.481 70.5273 375.815 71.2395C379.182 71.9194 382.322 73.1819 385.236 75.0272C388.182 76.8725 390.594 79.511 392.471 82.9426C394.349 86.3419 395.288 90.7609 395.288 96.1997V142.313C395.288 144.201 393.757 145.732 391.869 145.732H384.527C382.639 145.732 381.108 144.201 381.108 142.313V135.534H380.525C379.587 137.412 378.178 139.257 376.301 141.07C374.423 142.883 372.011 144.388 369.065 145.586C366.119 146.784 362.59 147.383 358.479 147.383ZM361.635 135.728C365.65 135.728 369.081 134.935 371.93 133.349C374.811 131.762 376.997 129.69 378.486 127.133C380.007 124.543 380.768 121.775 380.768 118.829V109.214C380.25 109.732 379.247 110.218 377.757 110.671C376.301 111.092 374.633 111.464 372.756 111.788C370.878 112.079 369.049 112.354 367.268 112.613C365.488 112.84 363.999 113.034 362.801 113.196C359.984 113.552 357.41 114.151 355.08 114.993C352.781 115.834 350.936 117.048 349.544 118.635C348.184 120.189 347.504 122.261 347.504 124.851C347.504 128.444 348.831 131.163 351.486 133.009C354.141 134.822 357.524 135.728 361.635 135.728Z"/>
<path d="M421.134 173.703C418.965 173.703 416.99 173.525 415.21 173.169C414.816 173.097 414.443 173.024 414.094 172.949C412.418 172.59 411.589 170.872 412.072 169.228L413.783 163.406C414.306 161.625 416.153 160.619 417.988 160.897C419.358 161.105 420.633 161.181 421.814 161.125C423.886 161.028 425.715 160.251 427.302 158.795C428.92 157.338 430.345 154.958 431.575 151.656L432.95 147.866C433.222 147.115 433.223 146.291 432.951 145.539L409.389 80.3024C407.779 75.8456 411.081 71.1424 415.82 71.1424H416.659C419.618 71.1424 422.241 73.0456 423.159 75.8585L440.39 128.657C440.461 128.878 440.667 129.027 440.899 129.027V129.027C441.13 129.027 441.336 128.878 441.408 128.657L458.638 75.8585C459.556 73.0456 462.179 71.1424 465.138 71.1424H466.004C470.749 71.1424 474.051 75.8569 472.43 80.3161L445.026 155.687C443.602 159.571 441.789 162.857 439.587 165.544C437.386 168.264 434.764 170.303 431.721 171.663C428.677 173.023 425.149 173.703 421.134 173.703Z"/>
<path d="M497.414 145.732C493.637 145.732 490.576 142.67 490.576 138.894V53.1166C490.576 49.3405 493.637 46.2793 497.414 46.2793H498.744C502.52 46.2793 505.581 49.3405 505.581 53.1166V85.3959C505.581 87.6616 507.418 89.4983 509.684 89.4983H554.478C554.856 89.4983 555.162 89.1922 555.162 88.8146V53.1166C555.162 49.3405 558.223 46.2793 561.999 46.2793H563.378C567.155 46.2793 570.216 49.3405 570.216 53.1166V138.894C570.216 142.671 567.155 145.732 563.378 145.732H561.999C558.223 145.732 555.162 142.67 555.162 138.894V106.469C555.162 104.204 553.325 102.367 551.06 102.367H506.265C505.888 102.367 505.581 102.673 505.581 103.051V138.894C505.581 142.67 502.52 145.732 498.744 145.732H497.414Z"/>
<path d="M597.74 145.732C593.964 145.732 590.903 142.67 590.903 138.894V77.9797C590.903 74.2036 593.964 71.1424 597.74 71.1424H598.585C602.361 71.1424 605.422 74.2036 605.422 77.9797V138.894C605.422 142.671 602.361 145.732 598.585 145.732H597.74ZM598.235 59.6335C595.71 59.6335 593.541 58.7918 591.728 57.1083C589.948 55.3925 589.057 53.353 589.057 50.9897C589.057 48.594 589.948 46.5545 591.728 44.871C593.541 43.1552 595.71 42.2973 598.235 42.2973C600.76 42.2973 602.913 43.1552 604.694 44.871C606.507 46.5545 607.413 48.594 607.413 50.9897C607.413 53.353 606.507 55.3925 604.694 57.1083C602.913 58.7918 600.76 59.6335 598.235 59.6335Z"/>
</mask>
<path d="M310.286 72.405C306.806 72.405 304.08 69.6423 302.373 66.6098C301.292 64.6894 299.756 63.06 297.766 61.7216C294.01 59.1641 289.284 57.8853 283.586 57.8853C279.507 57.8853 275.978 58.5328 273 59.8277C270.021 61.0903 267.707 62.8385 266.056 65.0723C264.437 67.2737 263.628 69.7827 263.628 72.5992C263.628 74.9625 264.178 77.002 265.279 78.7179C266.412 80.4337 267.885 81.8743 269.698 83.0398C271.543 84.1728 273.518 85.1279 275.622 85.9049C277.726 86.6494 279.75 87.2645 281.692 87.7502L291.404 90.2753C294.577 91.0523 297.831 92.1044 301.165 93.4318C304.5 94.7591 307.591 96.5073 310.44 98.6763C313.289 100.845 315.588 103.532 317.336 106.737C319.116 109.942 320.007 113.779 320.007 118.246C320.007 123.879 318.55 128.881 315.636 133.252C312.755 137.622 308.562 141.07 303.059 143.595C297.588 146.12 290.967 147.383 283.198 147.383C275.752 147.383 269.309 146.201 263.87 143.838C258.432 141.475 254.174 138.124 251.099 133.786C249.314 131.25 247.993 128.441 247.135 125.359C246.083 121.582 249.296 118.246 253.217 118.246H254.748C258.31 118.246 261.073 121.112 262.639 124.311C263.155 125.367 263.792 126.34 264.55 127.23C266.622 129.593 269.261 131.358 272.466 132.523C275.703 133.656 279.248 134.223 283.1 134.223C287.341 134.223 291.113 133.559 294.415 132.232C297.75 130.872 300.372 128.994 302.282 126.599C304.192 124.171 305.147 121.338 305.147 118.101C305.147 115.155 304.305 112.743 302.622 110.865C300.971 108.987 298.721 107.433 295.872 106.203C293.055 104.973 289.867 103.889 286.305 102.95L274.554 99.7447C266.59 97.5756 260.277 94.3868 255.615 90.1782C250.986 85.9696 248.671 80.4013 248.671 73.4733C248.671 67.7431 250.225 62.7414 253.333 58.468C256.441 54.1947 260.649 50.8764 265.958 48.5131C271.268 46.1174 277.257 44.9196 283.926 44.9196C290.66 44.9196 296.6 46.1012 301.748 48.4645C306.928 50.8278 311.007 54.0814 313.985 58.2252C315.609 60.4676 316.81 62.8929 317.587 65.5011C318.684 69.1823 315.483 72.405 311.642 72.405H310.286Z" fill="#2D7BFF"/>
<path d="M358.479 147.383C353.752 147.383 349.479 146.509 345.659 144.76C341.839 142.98 338.812 140.406 336.578 137.039C334.377 133.672 333.276 129.545 333.276 124.656C333.276 120.448 334.085 116.984 335.704 114.264C337.323 111.545 339.508 109.392 342.26 107.806C345.011 106.219 348.087 105.022 351.486 104.212C354.885 103.403 358.349 102.788 361.878 102.367C366.346 101.849 369.972 101.428 372.756 101.104C375.54 100.748 377.563 100.182 378.826 99.4047C380.088 98.6278 380.72 97.3652 380.72 95.617V95.2771C380.72 91.0361 379.522 87.7502 377.126 85.4192C374.763 83.0883 371.234 81.9229 366.54 81.9229C361.651 81.9229 357.799 83.0074 354.982 85.1764C353.132 86.5966 351.66 88.124 350.568 89.7587C349.638 91.1505 348.006 92.0421 346.374 91.6703L339.314 90.0624C337.316 89.6074 336.146 87.4958 337.064 85.6636C338.534 82.7273 340.395 80.2502 342.648 78.2323C345.788 75.4157 349.398 73.3762 353.477 72.1136C357.556 70.8186 361.846 70.1712 366.346 70.1712C369.324 70.1712 372.481 70.5273 375.815 71.2395C379.182 71.9194 382.322 73.1819 385.236 75.0272C388.182 76.8725 390.594 79.511 392.471 82.9426C394.349 86.3419 395.288 90.7609 395.288 96.1997V142.313C395.288 144.201 393.757 145.732 391.869 145.732H384.527C382.639 145.732 381.108 144.201 381.108 142.313V135.534H380.525C379.587 137.412 378.178 139.257 376.301 141.07C374.423 142.883 372.011 144.388 369.065 145.586C366.119 146.784 362.59 147.383 358.479 147.383ZM361.635 135.728C365.65 135.728 369.081 134.935 371.93 133.349C374.811 131.762 376.997 129.69 378.486 127.133C380.007 124.543 380.768 121.775 380.768 118.829V109.214C380.25 109.732 379.247 110.218 377.757 110.671C376.301 111.092 374.633 111.464 372.756 111.788C370.878 112.079 369.049 112.354 367.268 112.613C365.488 112.84 363.999 113.034 362.801 113.196C359.984 113.552 357.41 114.151 355.08 114.993C352.781 115.834 350.936 117.048 349.544 118.635C348.184 120.189 347.504 122.261 347.504 124.851C347.504 128.444 348.831 131.163 351.486 133.009C354.141 134.822 357.524 135.728 361.635 135.728Z" fill="#2D7BFF"/>
<path d="M421.134 173.703C418.965 173.703 416.99 173.525 415.21 173.169C414.816 173.097 414.443 173.024 414.094 172.949C412.418 172.59 411.589 170.872 412.072 169.228L413.783 163.406C414.306 161.625 416.153 160.619 417.988 160.897C419.358 161.105 420.633 161.181 421.814 161.125C423.886 161.028 425.715 160.251 427.302 158.795C428.92 157.338 430.345 154.958 431.575 151.656L432.95 147.866C433.222 147.115 433.223 146.291 432.951 145.539L409.389 80.3024C407.779 75.8456 411.081 71.1424 415.82 71.1424H416.659C419.618 71.1424 422.241 73.0456 423.159 75.8585L440.39 128.657C440.461 128.878 440.667 129.027 440.899 129.027V129.027C441.13 129.027 441.336 128.878 441.408 128.657L458.638 75.8585C459.556 73.0456 462.179 71.1424 465.138 71.1424H466.004C470.749 71.1424 474.051 75.8569 472.43 80.3161L445.026 155.687C443.602 159.571 441.789 162.857 439.587 165.544C437.386 168.264 434.764 170.303 431.721 171.663C428.677 173.023 425.149 173.703 421.134 173.703Z" fill="#2D7BFF"/>
<path d="M497.414 145.732C493.637 145.732 490.576 142.67 490.576 138.894V53.1166C490.576 49.3405 493.637 46.2793 497.414 46.2793H498.744C502.52 46.2793 505.581 49.3405 505.581 53.1166V85.3959C505.581 87.6616 507.418 89.4983 509.684 89.4983H554.478C554.856 89.4983 555.162 89.1922 555.162 88.8146V53.1166C555.162 49.3405 558.223 46.2793 561.999 46.2793H563.378C567.155 46.2793 570.216 49.3405 570.216 53.1166V138.894C570.216 142.671 567.155 145.732 563.378 145.732H561.999C558.223 145.732 555.162 142.67 555.162 138.894V106.469C555.162 104.204 553.325 102.367 551.06 102.367H506.265C505.888 102.367 505.581 102.673 505.581 103.051V138.894C505.581 142.67 502.52 145.732 498.744 145.732H497.414Z" fill="#2D7BFF"/>
<path d="M597.74 145.732C593.964 145.732 590.903 142.67 590.903 138.894V77.9797C590.903 74.2036 593.964 71.1424 597.74 71.1424H598.585C602.361 71.1424 605.422 74.2036 605.422 77.9797V138.894C605.422 142.671 602.361 145.732 598.585 145.732H597.74ZM598.235 59.6335C595.71 59.6335 593.541 58.7918 591.728 57.1083C589.948 55.3925 589.057 53.353 589.057 50.9897C589.057 48.594 589.948 46.5545 591.728 44.871C593.541 43.1552 595.71 42.2973 598.235 42.2973C600.76 42.2973 602.913 43.1552 604.694 44.871C606.507 46.5545 607.413 48.594 607.413 50.9897C607.413 53.353 606.507 55.3925 604.694 57.1083C602.913 58.7918 600.76 59.6335 598.235 59.6335Z" fill="#2D7BFF"/>
<path d="M310.286 72.405C306.806 72.405 304.08 69.6423 302.373 66.6098C301.292 64.6894 299.756 63.06 297.766 61.7216C294.01 59.1641 289.284 57.8853 283.586 57.8853C279.507 57.8853 275.978 58.5328 273 59.8277C270.021 61.0903 267.707 62.8385 266.056 65.0723C264.437 67.2737 263.628 69.7827 263.628 72.5992C263.628 74.9625 264.178 77.002 265.279 78.7179C266.412 80.4337 267.885 81.8743 269.698 83.0398C271.543 84.1728 273.518 85.1279 275.622 85.9049C277.726 86.6494 279.75 87.2645 281.692 87.7502L291.404 90.2753C294.577 91.0523 297.831 92.1044 301.165 93.4318C304.5 94.7591 307.591 96.5073 310.44 98.6763C313.289 100.845 315.588 103.532 317.336 106.737C319.116 109.942 320.007 113.779 320.007 118.246C320.007 123.879 318.55 128.881 315.636 133.252C312.755 137.622 308.562 141.07 303.059 143.595C297.588 146.12 290.967 147.383 283.198 147.383C275.752 147.383 269.309 146.201 263.87 143.838C258.432 141.475 254.174 138.124 251.099 133.786C249.314 131.25 247.993 128.441 247.135 125.359C246.083 121.582 249.296 118.246 253.217 118.246H254.748C258.31 118.246 261.073 121.112 262.639 124.311C263.155 125.367 263.792 126.34 264.55 127.23C266.622 129.593 269.261 131.358 272.466 132.523C275.703 133.656 279.248 134.223 283.1 134.223C287.341 134.223 291.113 133.559 294.415 132.232C297.75 130.872 300.372 128.994 302.282 126.599C304.192 124.171 305.147 121.338 305.147 118.101C305.147 115.155 304.305 112.743 302.622 110.865C300.971 108.987 298.721 107.433 295.872 106.203C293.055 104.973 289.867 103.889 286.305 102.95L274.554 99.7447C266.59 97.5756 260.277 94.3868 255.615 90.1782C250.986 85.9696 248.671 80.4013 248.671 73.4733C248.671 67.7431 250.225 62.7414 253.333 58.468C256.441 54.1947 260.649 50.8764 265.958 48.5131C271.268 46.1174 277.257 44.9196 283.926 44.9196C290.66 44.9196 296.6 46.1012 301.748 48.4645C306.928 50.8278 311.007 54.0814 313.985 58.2252C315.609 60.4676 316.81 62.8929 317.587 65.5011C318.684 69.1823 315.483 72.405 311.642 72.405H310.286Z" stroke="#2D7BFF" stroke-width="2" mask="url(#path-5-outside-1_27_54)"/>
<path d="M358.479 147.383C353.752 147.383 349.479 146.509 345.659 144.76C341.839 142.98 338.812 140.406 336.578 137.039C334.377 133.672 333.276 129.545 333.276 124.656C333.276 120.448 334.085 116.984 335.704 114.264C337.323 111.545 339.508 109.392 342.26 107.806C345.011 106.219 348.087 105.022 351.486 104.212C354.885 103.403 358.349 102.788 361.878 102.367C366.346 101.849 369.972 101.428 372.756 101.104C375.54 100.748 377.563 100.182 378.826 99.4047C380.088 98.6278 380.72 97.3652 380.72 95.617V95.2771C380.72 91.0361 379.522 87.7502 377.126 85.4192C374.763 83.0883 371.234 81.9229 366.54 81.9229C361.651 81.9229 357.799 83.0074 354.982 85.1764C353.132 86.5966 351.66 88.124 350.568 89.7587C349.638 91.1505 348.006 92.0421 346.374 91.6703L339.314 90.0624C337.316 89.6074 336.146 87.4958 337.064 85.6636C338.534 82.7273 340.395 80.2502 342.648 78.2323C345.788 75.4157 349.398 73.3762 353.477 72.1136C357.556 70.8186 361.846 70.1712 366.346 70.1712C369.324 70.1712 372.481 70.5273 375.815 71.2395C379.182 71.9194 382.322 73.1819 385.236 75.0272C388.182 76.8725 390.594 79.511 392.471 82.9426C394.349 86.3419 395.288 90.7609 395.288 96.1997V142.313C395.288 144.201 393.757 145.732 391.869 145.732H384.527C382.639 145.732 381.108 144.201 381.108 142.313V135.534H380.525C379.587 137.412 378.178 139.257 376.301 141.07C374.423 142.883 372.011 144.388 369.065 145.586C366.119 146.784 362.59 147.383 358.479 147.383ZM361.635 135.728C365.65 135.728 369.081 134.935 371.93 133.349C374.811 131.762 376.997 129.69 378.486 127.133C380.007 124.543 380.768 121.775 380.768 118.829V109.214C380.25 109.732 379.247 110.218 377.757 110.671C376.301 111.092 374.633 111.464 372.756 111.788C370.878 112.079 369.049 112.354 367.268 112.613C365.488 112.84 363.999 113.034 362.801 113.196C359.984 113.552 357.41 114.151 355.08 114.993C352.781 115.834 350.936 117.048 349.544 118.635C348.184 120.189 347.504 122.261 347.504 124.851C347.504 128.444 348.831 131.163 351.486 133.009C354.141 134.822 357.524 135.728 361.635 135.728Z" stroke="#2D7BFF" stroke-width="2" mask="url(#path-5-outside-1_27_54)"/>
<path d="M421.134 173.703C418.965 173.703 416.99 173.525 415.21 173.169C414.816 173.097 414.443 173.024 414.094 172.949C412.418 172.59 411.589 170.872 412.072 169.228L413.783 163.406C414.306 161.625 416.153 160.619 417.988 160.897C419.358 161.105 420.633 161.181 421.814 161.125C423.886 161.028 425.715 160.251 427.302 158.795C428.92 157.338 430.345 154.958 431.575 151.656L432.95 147.866C433.222 147.115 433.223 146.291 432.951 145.539L409.389 80.3024C407.779 75.8456 411.081 71.1424 415.82 71.1424H416.659C419.618 71.1424 422.241 73.0456 423.159 75.8585L440.39 128.657C440.461 128.878 440.667 129.027 440.899 129.027V129.027C441.13 129.027 441.336 128.878 441.408 128.657L458.638 75.8585C459.556 73.0456 462.179 71.1424 465.138 71.1424H466.004C470.749 71.1424 474.051 75.8569 472.43 80.3161L445.026 155.687C443.602 159.571 441.789 162.857 439.587 165.544C437.386 168.264 434.764 170.303 431.721 171.663C428.677 173.023 425.149 173.703 421.134 173.703Z" stroke="#2D7BFF" stroke-width="2" mask="url(#path-5-outside-1_27_54)"/>
<path d="M497.414 145.732C493.637 145.732 490.576 142.67 490.576 138.894V53.1166C490.576 49.3405 493.637 46.2793 497.414 46.2793H498.744C502.52 46.2793 505.581 49.3405 505.581 53.1166V85.3959C505.581 87.6616 507.418 89.4983 509.684 89.4983H554.478C554.856 89.4983 555.162 89.1922 555.162 88.8146V53.1166C555.162 49.3405 558.223 46.2793 561.999 46.2793H563.378C567.155 46.2793 570.216 49.3405 570.216 53.1166V138.894C570.216 142.671 567.155 145.732 563.378 145.732H561.999C558.223 145.732 555.162 142.67 555.162 138.894V106.469C555.162 104.204 553.325 102.367 551.06 102.367H506.265C505.888 102.367 505.581 102.673 505.581 103.051V138.894C505.581 142.67 502.52 145.732 498.744 145.732H497.414Z" stroke="#2D7BFF" stroke-width="2" mask="url(#path-5-outside-1_27_54)"/>
<path d="M597.74 145.732C593.964 145.732 590.903 142.67 590.903 138.894V77.9797C590.903 74.2036 593.964 71.1424 597.74 71.1424H598.585C602.361 71.1424 605.422 74.2036 605.422 77.9797V138.894C605.422 142.671 602.361 145.732 598.585 145.732H597.74ZM598.235 59.6335C595.71 59.6335 593.541 58.7918 591.728 57.1083C589.948 55.3925 589.057 53.353 589.057 50.9897C589.057 48.594 589.948 46.5545 591.728 44.871C593.541 43.1552 595.71 42.2973 598.235 42.2973C600.76 42.2973 602.913 43.1552 604.694 44.871C606.507 46.5545 607.413 48.594 607.413 50.9897C607.413 53.353 606.507 55.3925 604.694 57.1083C602.913 58.7918 600.76 59.6335 598.235 59.6335Z" stroke="#2D7BFF" stroke-width="2" mask="url(#path-5-outside-1_27_54)"/>
<defs>
<linearGradient id="paint0_linear_27_54" x1="26.9976" y1="105.745" x2="206.998" y2="105.745" gradientUnits="userSpaceOnUse">
<stop stop-color="#156CFF"/>
<stop offset="1" stop-color="#317CFA"/>
</linearGradient>
<linearGradient id="paint1_linear_27_54" x1="26.9976" y1="105.745" x2="206.998" y2="105.745" gradientUnits="userSpaceOnUse">
<stop stop-color="#156CFF"/>
<stop offset="1" stop-color="#317CFA"/>
</linearGradient>
<linearGradient id="paint2_linear_27_54" x1="76" y1="69.5" x2="159" y2="69.5" gradientUnits="userSpaceOnUse">
<stop stop-color="#156CFF"/>
<stop offset="1" stop-color="#317CFA"/>
</linearGradient>
<linearGradient id="paint3_linear_27_54" x1="76" y1="92.5" x2="142" y2="92.5" gradientUnits="userSpaceOnUse">
<stop stop-color="#156CFF"/>
<stop offset="1" stop-color="#317CFA"/>
</linearGradient>
<linearGradient id="paint4_linear_27_54" x1="76" y1="116" x2="121" y2="116" gradientUnits="userSpaceOnUse">
<stop stop-color="#156CFF"/>
<stop offset="1" stop-color="#317CFA"/>
</linearGradient>
</defs>
</svg>
